<svg xmlns="http://www.w3.org/2000/svg" width="19.64" height="19.644" viewBox="0 0 19.64 19.644">
  <g id="instagram" transform="translate(-0.449 0)">
    <path id="Path_84" data-name="Path 84" d="M20.038,5.775a7.178,7.178,0,0,0-.457-2.383A5.032,5.032,0,0,0,16.708.518,7.2,7.2,0,0,0,14.325.061C13.273.012,12.939,0,10.272,0s-3,.012-4.048.058A7.18,7.18,0,0,0,3.841.514,4.793,4.793,0,0,0,2.1,1.65,4.836,4.836,0,0,0,.967,3.388,7.2,7.2,0,0,0,.51,5.771C.46,6.823.449,7.157.449,9.824s.012,3,.058,4.048a7.177,7.177,0,0,0,.457,2.383,5.031,5.031,0,0,0,2.874,2.874,7.2,7.2,0,0,0,2.383.457c1.047.046,1.381.058,4.048.058s3-.011,4.048-.058a7.176,7.176,0,0,0,2.383-.457,5.024,5.024,0,0,0,2.874-2.874,7.2,7.2,0,0,0,.457-2.383c.046-1.048.058-1.381.058-4.048s0-3-.05-4.048ZM18.27,13.8a5.384,5.384,0,0,1-.338,1.823,3.259,3.259,0,0,1-1.865,1.865,5.4,5.4,0,0,1-1.823.338c-1.036.046-1.347.058-3.968.058s-2.936-.011-3.968-.058a5.381,5.381,0,0,1-1.823-.338,3.023,3.023,0,0,1-1.128-.733,3.054,3.054,0,0,1-.733-1.128A5.4,5.4,0,0,1,2.287,13.8c-.046-1.036-.058-1.347-.058-3.968s.011-2.936.058-3.968a5.381,5.381,0,0,1,.338-1.823,2.986,2.986,0,0,1,.737-1.128A3.049,3.049,0,0,1,4.489,2.18a5.407,5.407,0,0,1,1.823-.338c1.036-.046,1.347-.058,3.968-.058s2.936.012,3.968.058a5.384,5.384,0,0,1,1.823.338,3.021,3.021,0,0,1,1.128.733,3.053,3.053,0,0,1,.733,1.128,5.406,5.406,0,0,1,.338,1.823c.046,1.036.058,1.347.058,3.968s-.012,2.928-.058,3.964Zm0,0" transform="translate(0 0)" fill="#8a8a8a"/>
    <path id="Path_85" data-name="Path 85" d="M130,124.5a5.046,5.046,0,1,0,5.046,5.046A5.047,5.047,0,0,0,130,124.5Zm0,8.32a3.273,3.273,0,1,1,3.273-3.273A3.274,3.274,0,0,1,130,132.82Zm0,0" transform="translate(-119.723 -119.722)" fill="#8a8a8a"/>
    <path id="Path_86" data-name="Path 86" d="M364.806,89.78a1.178,1.178,0,1,1-1.178-1.178A1.178,1.178,0,0,1,364.806,89.78Zm0,0" transform="translate(-348.11 -85.202)" fill="#8a8a8a"/>
  </g>
</svg>
