<svg xmlns="http://www.w3.org/2000/svg" width="39" height="24.67" viewBox="0 0 39 24.67">
  <g id="shipped" transform="translate(0 -94.062)">
    <g id="Group_4" data-name="Group 4" transform="translate(0 94.062)">
      <g id="Group_3" data-name="Group 3" transform="translate(0 0)">
        <path id="Path_16" data-name="Path 16" d="M36.27,104.52l-1.01-4.04a.611.611,0,0,0,.483-.6v-.651a2.568,2.568,0,0,0-2.565-2.565h-4.6V95.324a1.263,1.263,0,0,0-1.262-1.262H3.867a1.263,1.263,0,0,0-1.262,1.262V106.4a.611.611,0,0,0,1.221,0V95.324a.041.041,0,0,1,.041-.041H27.316a.041.041,0,0,1,.041.041V106.4a.611.611,0,1,0,1.221,0v-.692h7.207a2,2,0,0,1,1.9,1.384h-1.9a.611.611,0,0,0-.611.611V109a1.915,1.915,0,0,0,1.913,1.913h.692V113.6h-1.6a3.866,3.866,0,0,0-7.31,0h-.294V109a.611.611,0,0,0-1.221,0v4.6H14.687a3.866,3.866,0,0,0-7.31,0H3.867a.041.041,0,0,1-.041-.041v-1.343H6.473a.611.611,0,1,0,0-1.221H.611a.611.611,0,1,0,0,1.221H2.605v1.343a1.263,1.263,0,0,0,1.262,1.262h3.3c0,.014,0,.027,0,.041a3.867,3.867,0,0,0,7.735,0c0-.014,0-.027,0-.041H28.661c0,.014,0,.027,0,.041a3.867,3.867,0,0,0,7.735,0c0-.014,0-.027,0-.041h2a.611.611,0,0,0,.611-.611V107.7A3.221,3.221,0,0,0,36.27,104.52Zm-7.692-6.632h4.6a1.345,1.345,0,0,1,1.343,1.343v.041H28.578Zm0,6.595v-3.99H34l1,3.99ZM11.032,117.511a2.646,2.646,0,1,1,2.646-2.646A2.649,2.649,0,0,1,11.032,117.511Zm21.495,0a2.646,2.646,0,1,1,2.646-2.646A2.649,2.649,0,0,1,32.527,117.511Zm5.252-7.816h-.692a.693.693,0,0,1-.692-.692v-.692h1.384v1.384Z" transform="translate(0 -94.062)" fill="#4f4e60"/>
      </g>
    </g>
    <g id="Group_6" data-name="Group 6" transform="translate(9.77 113.603)">
      <g id="Group_5" data-name="Group 5" transform="translate(0 0)">
        <path id="Path_17" data-name="Path 17" d="M129.529,350.6a1.262,1.262,0,1,0,1.262,1.262A1.263,1.263,0,0,0,129.529,350.6Z" transform="translate(-128.267 -350.597)" fill="#4f4e60"/>
      </g>
    </g>
    <g id="Group_8" data-name="Group 8" transform="translate(31.265 113.603)">
      <g id="Group_7" data-name="Group 7" transform="translate(0 0)">
        <path id="Path_18" data-name="Path 18" d="M411.717,350.6a1.262,1.262,0,1,0,1.262,1.262A1.263,1.263,0,0,0,411.717,350.6Z" transform="translate(-410.455 -350.597)" fill="#4f4e60"/>
      </g>
    </g>
    <g id="Group_10" data-name="Group 10" transform="translate(15.633 110.997)">
      <g id="Group_9" data-name="Group 9">
        <path id="Path_19" data-name="Path 19" d="M214.957,316.393h-9.119a.611.611,0,1,0,0,1.221h9.119a.611.611,0,1,0,0-1.221Z" transform="translate(-205.227 -316.393)" fill="#4f4e60"/>
      </g>
    </g>
    <g id="Group_12" data-name="Group 12" transform="translate(1.303 108.392)">
      <g id="Group_11" data-name="Group 11">
        <path id="Path_20" data-name="Path 20" d="M25.529,282.188H17.713a.611.611,0,1,0,0,1.221h7.816a.611.611,0,0,0,0-1.221Z" transform="translate(-17.102 -282.188)" fill="#4f4e60"/>
      </g>
    </g>
    <g id="Group_14" data-name="Group 14" transform="translate(11.073 99.924)">
      <g id="Group_13" data-name="Group 13" transform="translate(0 0)">
        <path id="Path_21" data-name="Path 21" d="M155.531,171.2a.611.611,0,0,0-.864,0l-5.43,5.43-2.825-2.825a.611.611,0,0,0-.864.864l3.257,3.257a.611.611,0,0,0,.863,0l5.862-5.862A.611.611,0,0,0,155.531,171.2Z" transform="translate(-145.37 -171.023)" fill="#4f4e60"/>
      </g>
    </g>
  </g>
</svg>
