<svg xmlns="http://www.w3.org/2000/svg" width="19.663" height="19.663" viewBox="0 0 19.663 19.663">
  <path id="twitter" d="M9.832,0a9.832,9.832,0,1,0,9.832,9.832A9.833,9.833,0,0,0,9.832,0ZM14.32,7.666q.007.145.006.292a6.377,6.377,0,0,1-6.421,6.421h0a6.387,6.387,0,0,1-3.459-1.014,4.59,4.59,0,0,0,.538.031,4.528,4.528,0,0,0,2.8-.966A2.259,2.259,0,0,1,5.68,10.862,2.249,2.249,0,0,0,6.7,10.823a2.257,2.257,0,0,1-1.81-2.212c0-.01,0-.019,0-.029a2.241,2.241,0,0,0,1.022.282,2.259,2.259,0,0,1-.7-3.013A6.407,6.407,0,0,0,9.864,8.21,2.258,2.258,0,0,1,13.71,6.152,4.526,4.526,0,0,0,15.143,5.6a2.265,2.265,0,0,1-.992,1.248,4.5,4.5,0,0,0,1.3-.355A4.586,4.586,0,0,1,14.32,7.666Zm0,0" fill="#8a8a8a"/>
</svg>
