<svg xmlns="http://www.w3.org/2000/svg" width="20.572" height="20.671" viewBox="0 0 20.572 20.671">
  <path id="whatsapp" d="M17.824,3A10.244,10.244,0,0,0,1.7,15.363L.25,20.672l5.43-1.424a10.231,10.231,0,0,0,4.893,1.247h0A10.247,10.247,0,0,0,17.824,3ZM10.578,18.763h0a8.5,8.5,0,0,1-4.333-1.187l-.311-.183-3.222.844.86-3.141-.2-.32a8.513,8.513,0,1,1,7.212,3.99Zm4.67-6.376c-.256-.128-1.514-.747-1.749-.833s-.405-.128-.576.128-.661.833-.81,1-.3.192-.554.064A6.99,6.99,0,0,1,9.5,11.479,7.72,7.72,0,0,1,8.077,9.706c-.149-.257,0-.381.113-.522a7.239,7.239,0,0,0,.64-.875.471.471,0,0,0-.021-.448c-.064-.128-.576-1.388-.789-1.9s-.419-.431-.576-.439-.32-.009-.491-.009a.94.94,0,0,0-.682.32,2.87,2.87,0,0,0-.9,2.135A4.979,4.979,0,0,0,6.42,10.614a11.407,11.407,0,0,0,4.372,3.864,14.648,14.648,0,0,0,1.459.539,3.509,3.509,0,0,0,1.612.1A2.636,2.636,0,0,0,15.59,13.9a2.138,2.138,0,0,0,.149-1.217c-.064-.107-.235-.171-.49-.3Zm0,0" transform="translate(-0.25 -0.001)" fill="#4f4e60" fill-rule="evenodd"/>
</svg>
