<svg id="Capa_1" enable-background="new 0 0 512 512" height="512" viewBox="0 0 512 512" width="512" xmlns="http://www.w3.org/2000/svg"><path d="m505.609 351.9-24.172-79.9h11.134c4.748 0 9.215-2.248 12.045-6.06 2.83-3.813 3.687-8.739 2.313-13.283l-26.082-86.221c-5.783-19.12-23.093-31.966-43.073-31.966h-134.62l21.513-15.228c3.972-2.81 6.333-7.375 6.333-12.242v-19.58c17.459-6.192 30-22.865 30-42.42 0-24.813-20.187-45-45-45s-45 20.187-45 45c0 19.555 12.541 36.228 30 42.42v11.82l-45 31.853-45-31.853v-11.82c17.459-6.192 30-22.865 30-42.42 0-24.813-20.187-45-45-45s-45 20.187-45 45c0 19.555 12.541 36.228 30 42.42v19.58c0 4.867 2.361 9.432 6.333 12.243l21.513 15.228h-134.618c-19.98 0-37.29 12.846-43.073 31.966l-26.083 86.22c-1.375 4.544-.517 9.471 2.313 13.283s7.297 6.06 12.045 6.06h11.134l-24.173 79.9c-11.495 37.995-4.519 78.068 19.141 109.943 23.658 31.876 59.994 50.157 99.69 50.157h261.557c39.696 0 76.031-18.281 99.69-50.156 23.658-31.875 30.635-71.948 19.14-109.944zm-189.609-321.9c8.271 0 15 6.729 15 15s-6.729 15-15 15-15-6.729-15-15 6.729-15 15-15zm-120 30c-8.271 0-15-6.729-15-15s6.729-15 15-15 15 6.729 15 15-6.729 15-15 15zm-136.131 115.122c1.927-6.371 7.697-10.651 14.358-10.651h181.734c.009 0 .017.001.026.001.004 0 .008-.001.013-.001s.008.001.013.001c.009 0 .017-.001.026-.001h181.734c6.661 0 12.431 4.28 14.358 10.651l20.23 66.878h-31.344l-11.153-36.872c-1.914-6.328-7.746-10.657-14.357-10.657h-319.014c-6.611 0-12.443 4.329-14.357 10.657l-11.154 36.872h-31.343zm402.51 268.842c-17.942 24.172-45.497 38.036-75.601 38.036h-261.556c-30.104 0-57.659-13.864-75.601-38.036-17.942-24.173-23.232-54.563-14.515-83.376l26.801-88.588h20.21c6.611 0 12.443-4.329 14.357-10.657l11.153-36.872h296.746l11.153 36.872c1.914 6.328 7.746 10.657 14.357 10.657h20.21l26.801 88.588c8.717 28.813 3.427 59.203-14.515 83.376z"/></svg>